<svg version="1.2" xmlns="http://www.w3.org/2000/svg" viewBox="0 0 950 450" width="950" height="450">
	<title>bread_logo-svg</title>
	<style>
		.s0 { fill: #fab941 } 
		.s1 { fill: #fbba42 } 
		.s2 { fill: #f6b84a } 
		.s3 { fill: #fbbc41 } 
		.s4 { fill: #f9b94a } 
		.s5 { fill: #f2b549 } 
		.s6 { fill: #fbbe53 } 
		.s7 { fill: #fabd4f } 
		.s8 { fill: #f8bc50 } 
		.s9 { fill: #b98739 } 
		.s10 { fill: #ecb451 } 
		.s11 { fill: #e1a342 } 
		.s12 { fill: #cf953d } 
	</style>
	<path id="Layer" fill-rule="evenodd" class="s0" d="m296.9 350c-7.2 1-11.3-4-15.7-8.8 0.7-0.8 1.2-1 1.9-1 0.4 0.4 0.6 0.7 0.9 0.9 0.1 0.1 0.3 0.1 0.3 0.1 0 0-0.3-0.2-0.4-0.4-0.4-0.4-0.6-0.7-0.9-1.2-0.6-5.1-2.2-10.1-1.3-14.5 2.2-10.5 5.6-20.7 8.4-31.1 0.8-2.8 1.3-5.6 2-8.9-1.3 0.9-2.1 1.4-2.9 1.9 1.7-5.9 3.6-11.9 5.2-17.9 3.8-14.1 7.7-28.2 11.1-42.4 0.7-2.9 0.6-6.5-0.6-9-2.6-5.5-7.8-6.3-14.1-2.7-2.6 1.6-6 4.6-7.9 1.6-1.4-2.2-0.5-7.2 1.2-9.9 7.9-12.8 19.7-19.2 34.9-18.7 5.1 0.2 10.4 0.2 15 1.7 11.2 3.8 14.6 13.5 15.9 24 0.5 3.6 0.1 7.3 0.1 11.8 4.1-2 7.6-3.7 11.8-5.3 1.8 0.1 3.5 0.7 4.3 0.1 7.7-6.3 13.7-13.6 13.9-24.2 0.1-3.8 1.9-5.4 5.6-5.1 2.3 0.1 4.7 0.3 7-0.1 1.5-0.2 3-1.3 4.4-2 10.4 1.3 12.8 4.3 16.5 13.2 0.4 1.1 0.4 2.6 0.1 3.8-3.4 11-9.1 20.3-18.5 27.7-9.8 7.8-20.8 11.7-32.8 13.3-5.7 0.7-10.3 3.6-14.9 6.4-1.3 0.8-2.5 2.4-2.9 3.8-3.6 12.2-7 24.4-10.5 36.6-1.2 3.8-2.5 7.6-3.5 11.4-1.7 6 1.6 9.6 7.2 7.5 7.6-3 15.3-6.2 22.3-10.3 14.3-8.5 26.8-19.3 38.6-31.1 4.2-4.2 9.6-7.3 10.3-13.8 1.2-10 4.9-19.2 9.2-28.1 7.1-15.1 17.3-28 30.5-38.4 12.9-10.3 27.5-17.6 43.7-19.5 10.2-1.2 20.9-2 31.3 2.2 6.4 2.7 12.6 11.6 13.4 18.1 1.9 14.1-2.6 26.8-10.5 37.7-5.2 7.3-11 14.6-19.7 18.8-6.5 3.1-12.1 8-18.4 11.6-3.5 1.9-7.5 2.9-11.3 4.2-7.6 2.6-15.1 5.4-22.7 7.8-3.3 1.1-3.9 3.5-4.4 6.2-1.6 8.5 2 15.9 7.4 21.2 3.2 3.2 9.6 3.5 14.7 4 11.9 1.3 21.5-5.6 30.3-11.7 11.7-8.3 21.4-19.3 32.9-27.9 6.9-5.2 6-12 7.8-18.4 1.5-5.7 3.5-11.4 5.9-16.8 2.8-6.3 6-12.6 9.7-18.5 5.5-9 12.3-17 21.3-23 3.8-2.6 7.2-5.8 10.9-8.5 2.8-2 5.8-3.6 8.7-5.4 14.3-8.7 30.1-8.4 45.9-7.9 5.2 0.2 10.8 0.5 14.2 5.8 0.4 0.6 1.7 0.7 2.9 1.2 2.2-4.3 4.4-8.6 6.7-12.8 4-7.2 17.4-10.2 24-5.4 1.9 1.3 4.1 2.4 5.4 4.1 2.1 2.9 5 6.3 5 9.3-0.2 5.2-2.4 10.3-3.8 15.3-1.9 6.7-3.8 13.4-6 19.9-3.4 10.3-7.2 20.5-10.5 30.8-2.1 6.3-3.6 12.8-5.4 19.2-1.8 6.6-3.6 13.2-5.5 20 5.9 1.5 10.2-1.5 13.4-4.3 6.8-5.9 12.1-13.5 19-19.3 6.7-5.6 5.5-14 9-20.6 5.1-9.3 9.3-19.2 15.2-27.9 7.5-10.9 15.8-21.3 26.5-29.3 6.1-4.6 12.5-8.6 19.1-12.7 1.4 0.7 2.5 1.9 3.3 1.7 6.6-1.7 13.3-3.6 19.8-5.6 10.3-3.2 20.2-1.2 29.9 1.5-1.2 0.2-2 0.4-2.9 0.6q0.3 0.6 0.6 1.2c0.8-0.6 1.7-1.2 2.9-1.9 1.6-0.3 2.8-0.6 4.1-0.9-5.7-1.8-9.1-2.8-12.4-3.8 2.8-0.1 6.4 1 8.2-0.4 1.8-1.5 1.9-5.2 2.9-8q5.9-17 11.9-34c2.6-7.6 5.3-15.2 7.9-22.8 4.4-12.7 8.8-25.4 13.4-38.3 1.3 2.1 2.3 2.2 3.4-0.1 1.8-3.9 5-4.8 9-4.7 7.2 0.2 14.3 0.1 21.4 0.1 2.5-0.1 4.9-0.4 6.7-0.5-0.3 4-0.5 7.3-0.8 10.5 0 0 0 0-0.2 0.3-0.4 1.1-0.6 1.9-0.8 3 0 0.2-0.1 0.7-0.4 0.8-0.7 1.7-1.2 3.3-1.6 4.9 0 0 0 0-0.3 0.1-0.4 0.7-0.6 1.3-0.7 2.3 0 0.7-0.1 1.1-0.3 1.8-0.3 0.7-0.5 1.3-0.7 1.8 0 0 0 0-0.2 0.3-0.4 1.1-0.6 1.9-0.8 3 0 0.2-0.1 0.7-0.2 0.9-0.4 0.8-0.6 1.3-0.9 2.1-2.1 5.8-4 11.2-6.2 16.9-0.7 1.8-1.1 3.4-1.6 5.2 0 0.2-0.1 0.5-0.4 0.8-0.7 2.1-1.2 3.9-1.7 5.8 0 0 0 0-0.2 0.3-0.8 2.1-1.3 3.9-1.8 6.1-3.1 8.8-6.1 17.2-9.2 25.8-1.4 2.5-2.8 4.6-3.5 7-3.9 11.9-7.5 23.8-11.5 36-0.4 1.1-0.6 2-0.8 3.1 0 0.2 0 0.7-0.3 0.9-1.4 2.4-3 4.4-3.7 6.7-4.5 13.4-8.9 26.9-13 40.4-1.4 4.5-2 9.2-2.9 13.8 0.8 5.2 1.6 10.4 2.5 16.7 3.7-1.7 7.4-2.8 10.3-4.9 6.6-4.9 12.9-10.2 19.2-15.5 4.3-3.7 8.6-7.5 12.4-11.7 4.2-4.6 7.9-9.7 11.4-14.7 3.7-5.2 7-10.6 10.8-15.7 2.1 4.7 3.7 9.2 5.3 14-0.2 0.4-0.2 0.6-0.4 0.9-0.3 0.3-0.5 0.6-0.6 0.8 0 0 0 0-0.2 0.2-0.4 0.7-0.6 1.2-0.8 1.8 0 0 0 0-0.2 0.2-0.4 0.7-0.6 1.2-0.8 1.7 0 0.1-0.1 0.1-0.3 0.3-0.3 0.5-0.5 0.8-0.7 1.4-1.5 3-3 5.7-4.6 8.7-1.3 1.9-2.4 3.7-3.7 5.7-0.8 1.1-1.3 2-1.7 2.9 0 0-0.1 0-0.3 0.2-10.8 14.4-23.1 26.9-37.4 37.8-1.9 0.9-3.5 1.7-5.1 2.5-6.4 3.2-12.7 6.4-19.6 9.6-7.9 0.8-15.4 2.5-23 0.1-4.9-1.5-6.2-3.4-5.1-9-5.3-0.9-6.7-5.3-7.6-10.3-1.3 1-2 1.6-2.8 2.2-1.4-4.3-2.8-0.6-3.7 0.2-8.7 8.2-16.8 17.1-26.1 24.7-7.6 6.2-16.8 10.3-26.8 10.9-8.1 0.4-15.8-0.9-21.6-8.2-4.6-5.6-7.9-11.4-9-18.6-0.1-1-1-1.9-1.9-3.7-3.6 4.1-6.9 7.9-10.4 11.5-9 9.4-19.1 17.4-31.4 22-8.1 3-16.8 4.8-25.4 2-5.1-1.7-9.4-5.1-11.2-10.7-1.3-4-2.9-7.8-4.4-11.8-5.2 4.8-10.6 9.8-16.4 14.9-0.5 0-0.6-0.1-0.7-0.1q0.2 0.2 0.4 0.5c-3.9 2.8-7.8 5.6-12 8.2 0-0.7 0.3-1.3 0.8-1.8 1.5-1.1 2.6-2 3.9-3.1 0.1-0.4 0.1-0.6 0.1-0.8-0.1 0.3-0.2 0.6-0.7 0.9-1.4 1.1-2.5 2-4 3-3.8 0.5-7.2 1-10.9 1.5 0.3 0.7 0.8 1.7 1.3 2.9-3.9 1.1-7.5 2.4-11.3 3.1-9 1.7-17.3 0.3-23.5-7.1-2.1-2.4-2.9-5.9-4.8-10-5.1-0.5-1.7-4.7-0.5-8.2-6.9-1.3-1.8-8-5.4-10.9-0.5 2.1-1 3.9-1.6 5.8-1.1 0.3-2.8 0.3-3.4 1-8.1 10.1-17.5 18.6-28.5 25.4-4.7 2.9-9.5 5.5-14.6 8 0.4-1 1-1.7 1.7-2.5 0-0.1 0.1-0.3 0.1-0.3 0 0-0.2 0.3-0.6 0.3-2.3 0.4-4.1 0.8-6 1.2q0.1 0.7 0.3 1.4 1.1 0.2 2.2 0.4c-2.8 1.7-5.6 3.3-8.6 4.6 1-1.4 2.4-2.5 3.7-3.5q-0.2-0.5-0.4-1c-2.6 1.3-5.2 2.6-8.3 3.9-3 0.2-5.9-0.3-8.3 0.6-9.5 3.6-18.9 2.7-28.5 0.8-1.5-0.2-3-0.2-4.5-0.3q-0.1 0.5-0.1 1 1.9 0.9 3.9 1.7c-3.3-0.7-6.5-1.4-9.6-2.4 1.1-0.6 1.9-0.8 2.8-1q-0.1-0.6-0.2-1.2c-1.5-0.1-3.7-3.9-4 1.6-6.4-1.9-9.6-7.2-13.2-12.3-4.4-6.3-7.3-13.2-8-21-0.1-0.5-0.9-0.9-1.8-2-21.9 23-45.7 43.1-76.5 53.3 0.3-0.9 0.8-1.6 1.3-2.4q-18.5 3.4-36.1 6.7c0.5 0.4 1.3 1.2 2.2 1.9zm601.1-114.1q0 0 0 0.1 0-0.1 0-0.1zm-288.2 63.2v0.2c0 0 0.2-0.3 0.4-0.4v-0.2c0 0-0.2 0.3-0.4 0.4zm-5 4v0.2c0 0 0.2-0.3 0.4-0.4v-0.2c0 0-0.2 0.3-0.4 0.4zm1.7-96.1c-4.1 7.1-8.9 13.9-12.3 21.4-2.7 5.9-3.5 12.7-5.2 19.1-1.9 7.1-2.8 13.9-0.1 21.3 2.7 7.6 10.2 11 16.3 6.1 2.1-1.7 3.9-3.7 5.9-5.5 3.8-3.5 8.3-6.5 11.3-10.5 6.5-9.1 13.4-18.1 16.7-29.2 2.6-8.7 6.4-17.1 8.8-25.9 2.6-9.1-2.3-14.9-11.6-14.9-13.3 0-22 7.6-29.8 18.1zm185.4 32.4c4.9-8.4 9.8-16.9 14.5-25.4 1.7-2.9 2.5-6.4 4.4-9.1 4-5.7 4.8-12.1 4-18.6-0.7-5.9-7.3-12.6-15.5-9.4-12.1 4.8-21.4 13-28.1 23.5-4.8 7.5-8.1 16.2-10.6 24.8-3.4 11.7-7.3 23.4-5.5 35.9 0.4 3.1 1.7 6.1 2.6 9.5 3.5-1.7 6-2.3 7.8-3.8 5-4.2 9.8-8.6 14.4-13.3 4.1-4.2 7.7-9 12-14.1zm-309.8-37.9c-0.7 0.8-1.2 1.8-2 2.5-2 1.8-4.7 3.2-6 5.3-4.3 7.2-8.3 14.5-12.1 22-2.4 4.8-4.2 10-6.3 15.1q0.6 0.5 1.2 1c4.5-1.6 9.4-2.5 13.5-4.8 6.7-3.7 12.8-8.4 19.3-12.5 7.4-4.6 11.9-11.3 14-19.6 1.9-7.3-2.8-13-10.3-12.4-3.6 0.3-7.1 1.9-11.3 3.4zm-190.1 10.6c3.7-0.5 7.3-0.9 11.3-1.4-7.6-2.6-14.5-1.4-15.7 3.3 1.5-0.7 2.6-1.1 4.4-1.9zm17 10.8q0-1.7 0-3.3-0.5 0-0.9 0 0.1 2.3 0.2 4.5c0.2 0 0.4-0.1 0.6-0.2 0.1 0 0.1-0.3 0.1-1zm-2.4-9.4q-0.6-0.2-1.1-0.4c0 0.1-0.1 0.4 0 0.4 0.3 0.2 0.7 0.3 1.1 0zm-14.1 69c0 0 0 0 0 0zm15-66c0 0 0 0 0 0z"/>
	<path id="Layer" fill-rule="evenodd" class="s0" d="m205 403.8c-0.4 0.1-0.9 0.2-1.9 0-5.6 1.7-10.6 3.5-15.7 5.3-9.1 3.3-18.3 6.5-27.4 10-12.7 4.8-26.3 2.6-39.3 5.6-7.8 1.8-16.2 1.1-24.3 1.2-5.5 0.1-10.9-0.6-16.8-0.9-7.9-1.6-15.4-3.2-22.8-5-1.7-0.4-3.8-0.9-5-2.1-4.4-4.6-8.8-9.3-12.8-14.3-0.8-1.1-0.1-3.4-0.1-5.1q1-0.4 2-0.8c0.5 5.1 3.2 7.6 7.5 6.6 1.5-0.4 2.4-3.5 4-5.3 5.3 1.1 10.1 2.6 15 3.2 10.3 1.4 20.7 1.4 31-1.3-2.1 0-4.2 0-6.2-0.2 0.7-0.6 1.3-1.1 2.2-1.6 13.1-0.9 25.6-2.4 37.8-6.6 7-2.4 14.5-3.2 21.4-6 8.1-3.1 15.5-7.9 23.5-11.4 10.3-4.6 18-12.4 24.5-20.9 5.2-6.8 9.1-15 11.5-23.2 2.1-7.1 1.5-15 1.9-22.6 0.5-12.3-5-21.7-12.7-31.2-10.2-12.6-24.6-15.6-38.4-20-6.3-2-13.3-1.7-19.8-2.7 0.8-1.1 1.6-1.8 3-3.3-2.3-0.4-3.9-0.9-5.4-0.8-2.9 0-5.9 0.5-8.9 0.6-7.1 0.3-9.6 1.9-11.9 8.8q-6.2 18.6-11.9 37.3c-2.2 7.2-4 14.6-6.2 22.2-0.8 2-1.3 3.9-2.1 5.9-1.4 4.5-2.5 8.6-3.7 12.8 0 0 0 0-0.3 0.2-0.4 2.1-0.6 4-0.8 6.1-0.3 0.8-0.6 1.2-1.1 1.9-0.4 1.1-0.6 2-0.8 2.8 0 0 0 0-0.2 0.2-0.4 1.1-0.6 2-0.8 3.1 0 0.2 0 0.6-0.3 0.8-0.7 0.4-1.2 0.7-2 0.9-3.3 1.2-3.4 2.5-0.7 4.3 0 0.8 0 1.2-0.4 1.8-1.1 2-2.2 3.9-2.5 5.8-0.9 4.7-2.4 8.7-7.8 9.5-8.2 1.2-16.3 2.5-24.5 3.5-2.8 0.4-5.6 0.3-8.4 0-1.2-0.2-2.2-1.5-3.2-2.3 0.9-0.8 1.8-2 2.9-2.5 1.2-0.5 2.6-0.4 3.9-0.6q0-0.5 0-1c-1.7-0.3-3.4-0.6-4.7-0.9-0.9-2.1-1.6-3.8-2.4-5.6 2.4-7.5 4.6-15 7.1-22.5 3.5-10 7.2-19.9 10.7-29.9 1.6-4.7 2.7-9.6 4.3-14.4 3.9-12.2 8-24.3 11.9-36.5 2.1-6.4 4-12.9 6-19.4 4.4-13.9 8.8-27.8 13.1-41.8 3.5-11.6 6.7-23.2 10.1-34.8 2.9-9.6 6.1-19 8.8-28.5 2.6-9 4.6-18 7.2-27 1-3.4 3.1-5.8 7.4-6.3 7.5-0.9 13.9 1.7 19.4 6.2 3.7 2.9 6.6 6.9 10 10.3 1 1 2.2 1.9 3.5 2.5 3.1 1.4 3.1 4 2.4 6.5-2.1 7.6-4.6 15-6.8 22.6-3.1 10.8-5.9 21.7-9.1 32.4-2.4 8-5.3 15.9-7.9 23.8-1.3 4-2.5 8-3.8 12.1q0.7 0.7 1.5 1.4c7.2-2.5 14.3-5.1 21.6-7.4 13.3-4.2 24.4-12.6 36.2-19.7 4.2-2.5 7.4-6.8 10.8-10.5 4.1-4.5 8-9.2 12.6-13.9 1.9-0.4 3.9-0.5 4.3-1.3 3.8-7.1 7-14.5 11-21.5 2.5-4.6-0.4-11.4 5.9-14.4 0.5-0.2 0.7-1.9 0.5-2.7-2.1-7.4-5.2-14.6-6.1-22.1-1-7.8-7.4-10.9-11.2-16.2-1.7-2.4-4.2-4.4-6.5-6.8-5 5.1-8-4.9-12.5-2.8 1.7-4.1 3-7.8 4.6-11.5 1.4-3.1 2.9-6.1 7.1-5.9 1.3 0 2.6-0.4 3.9-0.4 4.7 0 9.4-0.2 14.1 0.1 1.1 0.1 2 2.3 2.3 2.7 4.4 1.4 8.5 1.9 11.8 4 4.9 3.1 9.2 7.2 13.7 10.9 3.1 2.6 6.1 5.2 9.2 8 0 0.2 0.1 0.6 0.2 0.8 0.3 0.5 0.5 0.7 0.9 1.2 0.4 0.7 0.7 1.2 1.1 1.9 0.2 0.4 0.5 0.6 0.9 1.1 0.4 1.1 0.6 1.9 0.9 3.1 0.6 5.7 1.2 11 1.8 17.1 0.6 0.7 2.8 2.2 3 3.9 1 9.1-0.7 18-3.2 26.8-1.3 4.9-2.4 9.9-3.6 14.8 0 0 0 0-0.2 0.2-0.4 0.7-0.6 1.3-0.8 1.8 0 0 0 0-0.3 0.1-1.8 3-3.2 6-4.7 8.9 0 0 0 0-0.4 0-2.2 1.5-4.5 2.7-6 4.5-1.1 1.4-0.9 4-2 5.4-7.1 8.4-14.8 16.1-24.2 21.9-4.5 2.8-8.3 6.8-12.6 10.2-0.3 0.2-0.4 0.4-0.6 0.6 0.3-0.2 0.6-0.4 1.2-0.6 1.2 0 1.9 0 2.7 0-8 4.6-16.1 9.2-24.4 13.9 17.8 5.7 33.1 14.6 46 28-3 3.2-1.1 5.3 0.8 7.3 7.3 7.4 10.8 17 12 26.6 1.6 12.7 2.2 25.7-1 38.5-0.9 3.5-2.5 7.3 0.7 10.7-1.3 2.1-2.6 4.2-4.4 6.7-1.4 1.7-2.5 2.8-3.3 4.2-2.6 4.6-4.5 9.8-7.9 13.7-7.8 9-16.1 17.7-24.8 25.8-4.1 3.9-8.5 8.4-14.8 8.5 0 1.7 0 3.3 0 4.9zm-122.8-36.1q0.4 0.7 0.9 1.4 0.3-0.5 0.7-1.1c-0.5-0.2-1-0.5-1.6-0.3zm151-205.1q-0.3 0.3-0.6 0.5 0.2 0.1 0.3 0.3c0.2-0.2 0.3-0.4 0.3-0.8zm10.3 93.9c0 0 0 0 0 0z"/>
	<path id="Layer" fill-rule="evenodd" class="s1" d="m331.9 375.9q19.1-6.4 38.2-12.9c5-1.7 9.9-3.6 15.1-5 4.9-1.3 10.1-1.9 15.1-3 6.9-1.4 13.7-3 20.6-4.5 4.1-0.8 8.2-1.5 12.7-2.1 1.5 0.7 2.7 1.8 3.8 1.7 4.7-0.6 9.4-1.5 14.5-2.4-1.9-0.7-3.4-1.3-4.9-1.8 6.3-1 12.7-2.1 19.1-2.9 11.3-1.4 22.7-2.5 34-4 13.9-1.9 27.7-4.1 41.6-6 6.1-0.8 12.3-1.3 18.5-2 15-2 29.9-4.2 44.9-5.9 9.1-1.1 18.4-1.3 27.5-2.2 6.6-0.6 13-1.9 20-2.4 4.3 4.7 9.2 2.4 13.4 2.1 15-0.9 30-2.4 45.3-3.4 2.8 0.2 6.1 3.8 8.1-1.3 5.1-0.3 9.9-0.6 14.7-0.5 1.6 1.1 3 2.3 4.6 2.5 3 0.3 6.2 0.1 9.2 0.4-5.1 1.5-10 2.6-14.9 3.3-1.1-1.4-2.2-2.5-3.4-3.3-0.2-0.1-1.4 1.3-2.2 2.1 1.4 0.5 2.7 1.1 4.1 1.6 0.5 0.1 1 0 1.6 0.3 0.5 1.6 0.9 2.7 1.7 5.1-6.7 0.2-12.8 0.4-18.9 0.3-0.7-0.6-1.3-0.9-1.9-1.3q-0.2 0.5-0.3 0.9c0.7 0.2 1.5 0.5 2.3 1.1-1.3 3.5-3.7 3.3-5.5 1.5-2.7-2.6-3.7-1.9-4.9 1.1-0.4 0.9-2.7 2-3 1.8-4.2-3.6-7.2-1.9-9.9 1.9-0.2 0.2-1 0.2-1.5 0.2-11.5 1-22.8 5.8-34.7 3.1-1-0.2-2.2 0.2-4.2 0.4 1.9 1.3 2.9 2 4.3 2.9-1 0.6-1.5 1.1-2.1 1.2-4.9 0.9-9.7 2-14.6 2.4-3 0.3-3.9 1.2-2.9 3.9-11.7 2.4-23.5 4.8-35.7 6.7-3.1-1.1-5.9-2.6-8.3-2.2-9.1 1.4-18.1 3.5-27.1 5.2-14.4 2.8-28.7 5.7-43.1 8.2-13.2 2.3-26.6 4-39.9 6.3-9.1 1.5-18.1 3.6-27.2 5.3-6 1.1-12.2 1.8-18.3 3-4.9 1-9.8 2.7-14.8 3.8-7.4 1.7-14.9 3.2-22.3 4.7-4 0.8-8 1.4-12.1 2-2 0.6-4 2-6.2 2.4-5.5 1-11.2 1.2-16.6 2.3-6 1.3-11.8 3.6-17.7 5.1-11.6 2.8-23.2 5.3-34.8 7.9-5.9 1.4-11.8 2.8-17.7 4.1-8.7 1.9-17.5 3.6-26.5 5.4-1.2 0.3-2 0.6-2.8 0.8q0.2 0.6 0.3 1.2c1.3-0.3 2.5-0.7 4.1-0.9 0.8 0.3 1.3 0.6 1.7 1-3 0.5-6.1 1.1-9.6 1.2-0.4-2.7-0.4-5.1-0.4-7.6 3.2 0.6 5.6 1 8.6 1.5-1.2-2.1-1.9-3.3-2.4-4.1 2.3-2.6 3.9-6 6.4-7 2.4-1 5.9 0.3 8.9 0.6q0.7-0.6 1.4-1.1-3.3-1.2-6.6-2.4 0.6-1.1 1.2-2.1c10.9-3.3 18.8-13.5 30.8-12.6 0.9-1.3 1.3-2.8 2.3-3.2 5.9-2.5 11.9-4.7 17.8-7.2 0.8-0.4 1.1-2.1 1.5-3.2zm4.3 0.6l-0.3-0.1c0 0 0.2 0.2 0.3 0.1zm2.9-0.9l-0.1-0.2c0 0-0.1 0.2 0.1 0.2z"/>
	<path id="Layer" class="s2" d="m271.9 91c-3-2.5-6-5.1-9.1-7.7-4.5-3.7-8.8-7.8-13.7-10.9-3.3-2.1-7.4-2.6-11.8-4-0.3-0.4-1.2-2.6-2.3-2.7-4.7-0.3-9.4-0.1-14.1-0.1-1.3 0-2.6 0.4-3.9 0.4-4.2-0.2-5.7 2.8-7.1 5.9-1.6 3.7-2.9 7.4-4.6 11.5 4.5-2.1 7.5 7.9 12.5 2.8 2.3 2.4 4.8 4.4 6.5 6.8 3.8 5.3 10.2 8.4 11.2 16.2 0.9 7.5 4 14.7 6.1 22.1 0.2 0.8 0 2.5-0.5 2.7-6.3 3-3.4 9.8-5.9 14.4-4 7-7.2 14.4-11 21.5-0.4 0.8-2.4 0.9-4 1.2 4.9-9.8 11.2-18.8 13.3-29.9 2.3-12 2-23.9-3.6-34.8-3.4-6.5-9.2-11.1-16-14.5-13-6.6-26.9-6.2-40.8-5.8-8.3 0.3-16.6 1.4-24.8 3-8.2 1.6-16.4 3.5-24.2 6.5-9.6 3.7-18.7 8.5-28 12.9-3.8 1.7-7.5 3.6-11.9 5.5-0.9 0-1 0-1.2-0.4 6.2-4.4 12.1-8.6 18.3-12.5 3.1-1.9 6.5-3.4 9.7-5.1 0 0 0 0 0.4 0 4.3-1.3 8.2-2.5 12.2-3.7-0.8-1.5-1.3-2.6-2.4-4.6 2.9 1.3 4.8 2.1 6.7 2.9 5.5-7.3 7.4-8.3 11.9-6-1 0.9-2 1.7-3.6 3.1 1.6 0 2.5 0.3 2.8 0 2.3-1.8 4.4-3.6 6.6-5.5-2.3-0.7-4.6-1.6-6.9-2.2-6.6-1.6-13.8-0.3-20-4.2-1.1-0.7-3.6 0.9-5.4 1.6-1.6 0.6-3.3 2.2-4.9 2.1-3.9-0.2-4.4 1.4-3.9 4.9 0.2 1.9-0.9 4.1-1.4 6.2q-0.8-0.2-1.6-0.4c0-0.8 0.1-1.5 0-2.3-0.2-1.4-0.4-2.7-0.7-4.1-1.4 0.4-2.9 0.7-4.3 1.2-1.5 0.6-2.8 1.3-5 2.4 0.3-2.1 0.4-3.2 0.5-4.2 2.7-1.6 5.3-3.3 8-4.7 10.5-5.4 22-8.1 33.1-11.7 14.6-4.9 29.3-6.1 44.3-6.8 10.9-0.5 21.8-1.3 32.7-0.8 9.4 0.4 19.2 1 27.9 4.2 10.2 3.7 20.3 8.8 28.4 16.6 0.3 0.3 0.4 0.8 0.3 1.7 0 0.7 0.2 1 0.4 1.3 0 0-0.1 0 0 0.3 1.7 2.8 3.2 5.3 4.8 7.7z"/>
	<path id="Layer" fill-rule="evenodd" class="s3" d="m91.6 83.1c0.3 1.1 0.2 2.2-0.1 4.3 2.2-1.1 3.5-1.8 5-2.4 1.4-0.5 2.9-0.8 4.3-1.2 0.3 1.4 0.5 2.7 0.7 4.1 0.1 0.8 0 1.5 0 2.3q0.8 0.2 1.6 0.4c0.5-2.1 1.6-4.3 1.4-6.2-0.5-3.5 0-5.1 3.9-4.9 1.6 0.1 3.3-1.5 4.9-2.1 1.8-0.7 4.3-2.3 5.4-1.6 6.2 3.9 13.4 2.6 20 4.2 2.3 0.6 4.6 1.5 6.9 2.2-2.2 1.9-4.3 3.7-6.6 5.5-0.3 0.3-1.2 0-2.8 0 1.6-1.4 2.6-2.2 3.6-3.1-4.5-2.3-6.4-1.3-11.9 6-1.9-0.8-3.8-1.6-6.7-2.9 1.1 2 1.6 3.1 2.4 4.6-4 1.2-7.9 2.4-12.3 3.4-0.7-0.4-1-0.7-1.3-1q-0.1 0.2-0.3 0.3 0.7 0.5 1.3 1c-3.2 1.7-6.6 3.2-9.7 5.1-6.2 3.9-12.1 8.1-18.5 12.5-0.3 0.4-0.8 0.4-1.1 0.4-2.1 1.4-3.9 2.7-5.7 4 0 0 0 0.1-0.2 0.2-0.4 0.3-0.6 0.5-0.8 0.8 0 0 0 0-0.3 0.1-0.8 0.7-1.2 1.3-1.7 1.9 0 0 0 0-0.4 0.1-1 0.7-1.8 1.3-2.7 2.2-0.3 0.4-0.6 0.6-1.2 0.8-0.7 0.7-1.2 1.3-1.7 1.9 0 0 0 0-0.4 0-1.7 1.7-3.1 3.3-4.6 5 0 0 0 0-0.4 0.1-2.1 3-3.8 6-5.6 8.9 0 0 0 0-0.2 0.2-0.4 0.4-0.6 0.7-0.8 1.1 0.1 0.2 0 0.7-0.1 0.8-0.5 0.4-0.7 0.6-0.9 0.9 0 0 0 0-0.2 0.3-0.4 0.7-0.5 1.3-0.7 2.1 0 0.1-0.1 0.5-0.3 0.7-0.4 0.5-0.5 0.8-0.7 1.4-0.1 0.7-0.1 1.1-0.3 1.7-0.4 0.7-0.6 1.3-0.8 1.8 0 0 0 0-0.3 0.2-0.8 1.5-1.4 2.8-1.7 4.1-1 5.7-1.7 11.3-2.8 16.9-0.5 2.6-1.6 5.1-2.5 7.9 0.7 0.2 1.8 0.6 3.9 1.3-1.8 1.2-2.7 1.9-3.7 2.7-0.6-0.6-1.5-1-1.9-1.6-5-10-10.6-20-8.8-31.5 1.9-12.7 6.3-24.8 15-34.6 5.4-6 11.4-11.5 17.7-17.1 5.3-2 10.1-4 14.9-6.1q-0.2-0.7-0.4-1.4-1.3-0.4-2.5-0.8c2-1.5 3.9-3.2 6.1-4.4 2.3-1.4 4.8-2.4 7.6-3.5zm-6.2 12.6q2.4 0 4.9 0 0.3-0.7 0.5-1.4c-1.4-1.3-2.9-2.7-5.3-4.9-0.3 2.8-0.5 4.3-0.1 6.3zm35.9-15.6q-2.8-0.3-5.5-0.5-0.1 0.8-0.1 1.7 4.6 1.2 9.3 2.4 0.2-0.5 0.4-1.1c-1.1-0.8-2.3-1.6-4.1-2.5z"/>
	<path id="Layer" class="s4" d="m748 320c-3.1 0-6.3 0.2-9.3-0.1-1.6-0.2-3-1.4-4.2-2.6 5.5-1.1 10.8-1.4 15.9-2.4 4.6-0.9 10.1 1.1 13.6-3.7q7-1.1 13.9-2.2 13.9-2.2 27.8-4.3c8.2-1.3 16.4-2.6 24.6-3.7q10.9-1.5 21.8-2.5c1.9-0.2 3.9 0.4 5.9 0.7q0.1 0.7 0.1 1.4c-2.4 0.8-4.9 1.7-7.4 2.4-11.2 3.3-22.4 6.8-33.6 9.9-10.7 2.9-21.5 5.5-32.3 8.1-11.9 2.8-23.8 5.3-35.8 8-10 2.2-20.1 4.6-30.2 6.6-13.8 2.6-27.7 4.8-41.5 7.4-6.8 1.3-13.6 3.1-20.4 4.5-4.8 1-9.6 1.7-14.4 2.5-1.5 0.3-3.1 0.6-5.1 0.9-1.4-2.8-0.5-3.7 2.5-4 4.9-0.4 9.7-1.5 14.6-2.4 0.6-0.1 1.1-0.6 2.1-1.2-1.4-0.9-2.4-1.6-4.3-2.9 2-0.2 3.2-0.6 4.2-0.4 11.9 2.7 23.2-2.1 34.7-3.1 0.5 0 1.3 0 1.5-0.2 2.7-3.8 5.7-5.5 9.9-1.9 0.3 0.2 2.6-0.9 3-1.8 1.2-3 2.2-3.7 4.9-1.1 1.8 1.8 4.2 2 5.5-1.5 0-0.4 0-0.4 0-0.4 6-0.2 12.1-0.4 18.8-0.6-0.8-2.4-1.2-3.5-1.7-5.1 4.8-1.4 9.7-2.5 15.2-4 2.9-0.4 5.3-0.6 7.7-0.7q-0.3-1.1-0.6-2.2-3.7 1.3-7.4 2.6z"/>
	<path id="Layer" fill-rule="evenodd" class="s5" d="m42.6 366.2c1.1 1.6 1.8 3.3 2.7 5.4 1.3 0.3 3 0.6 4.7 0.9q0 0.5 0 1c-1.3 0.2-2.7 0.1-3.9 0.6-1.1 0.5-2 1.7-2.9 2.5 1 0.8 2 2.1 3.2 2.3 2.8 0.3 5.6 0.4 8.4 0 8.2-1 16.3-2.3 24.5-3.5 5.4-0.8 6.9-4.8 7.8-9.5 0.3-1.9 1.4-3.8 2.6-5.6 0.5 0.2 0.6 0.4 0.8 0.4 0.1 0 0.3-0.1 0.4-0.1q1-3.8 2.1-7.7c0 0 0-0.4 0.2-0.9 0.4-1.3 0.6-2.2 0.8-3 0 0 0 0 0.2-0.2 0.4-1.1 0.6-2 0.8-2.8 0.3-0.5 0.6-0.9 1.1-2 0.5-2.4 0.7-4.2 0.9-6 0 0 0 0 0.3-0.1 1.5-1.1 2.6-1.9 3.8-2.4-3.6 11.5-7.3 22.6-10.7 33.7-1.9 6.2-6.2 10.2-12.3 10.8q-17.9 1.9-35.7 3.7-0.7 1.1-1.5 2.1c1.6 0.8 3.4 1.3 4.6 2.5 2.1 2 3.8 4.4 5.3 6.8-3.5 2.8 0.7 2.6 1.2 3.9-1.2 1.8-2.1 4.9-3.6 5.3-4.3 1-7-1.5-7.5-6.6q-1 0.4-2 0.8c0 1.7-0.7 4 0.1 5.1 4 5 8.4 9.7 12.8 14.3 1.2 1.2 3.3 1.7 5 2.1 7.4 1.8 14.9 3.4 22.8 5.3 0.4 0.7 0.4 1.1 0.4 1.5-4.3 0.1-9.2 1.5-12.9-0.1-9.8-4.1-20.8-4.7-29.6-12.2-7.1-6-11.3-13.1-11.2-21.7 0.1-6.1 3.5-12.2 5.6-18.3 0.2-0.7 1.5-1.6 2-1.4 6 1.5 7.2-2.5 8.7-6.9zm-1.4 23.2c0.3 0.3 0.5 0.5 0.9 1.2 0.6 0.5 1.3 1 2.2 1.8 0.2 0.3 0.4 0.5 1.1 1 0.5 0.2 1 0.4 1.7 0.8h0.2c0 0-0.3-0.2-0.7-0.6-0.5-0.2-1-0.4-1.9-1-0.2-0.2-0.4-0.5-1-1.1-0.5-0.5-1.1-1-2-1.9-0.2-0.3-0.4-0.5-0.7-0.8h-0.3c0 0 0.3 0.3 0.5 0.6zm-2.1-3.2h0.2c0 0-0.3-0.2-0.4-0.4h-0.2c0 0 0.3 0.2 0.4 0.4z"/>
	<path id="Layer" class="s6" d="m272.5 423c-0.9-0.3-1.4-0.6-2.4-1.1-0.7-0.4-0.9-0.6-1.1-0.9 8.7-1.8 17.5-3.5 26.2-5.4 5.9-1.3 11.8-2.7 17.7-4.1 11.6-2.6 23.2-5.1 34.8-7.9 5.9-1.5 11.7-3.8 17.7-5.1 5.4-1.1 11.1-1.3 16.6-2.3 2.2-0.4 4.2-1.8 6.2-2.4 4.1-0.6 8.1-1.2 12.1-2 7.4-1.5 14.9-3 22.3-4.7 5-1.1 9.9-2.8 14.8-3.8 6.1-1.2 12.3-1.9 18.3-3 9.1-1.7 18.1-3.8 27.2-5.3 13.3-2.3 26.7-4 39.9-6.3 14.4-2.5 28.7-5.4 43.1-8.2 9-1.7 18-3.8 27.1-5.2 2.4-0.4 5.2 1.1 7.9 2.1-9.4 1.8-18.9 3-28.4 4.7-12.3 2.1-24.5 4.6-36.8 6.9-7.4 1.4-14.8 2.9-22.3 4.2-7.1 1.3-14.4 2.5-21.5 3.8-9.7 1.8-19.3 3.7-29 5.5-4.8 0.9-9.6 1.6-14.4 2.5-12.8 2.6-25.5 5.3-38.3 7.9-13.1 2.7-26.2 5.3-39.3 8.1-6.6 1.5-13.1 3.5-19.6 5-16.2 3.7-32.4 7.3-48.6 11-8.1 1.9-16.2 3.9-24.3 5.8-1.8 0.4-3.7 0.1-5.9 0.2z"/>
	<path id="Layer" class="s2" d="m912 211.1c-1.6-4.6-3.2-9.1-4.9-13.9 1.1-2.4 2.5-4.4 3.5-6.5 5-10.2 9.8-20.5 15-30.6 0.9-1.8 3.4-3.7 5.3-3.9 3.2-0.2 3.3 2.8 3.1 5.4-0.1 2.1 0 4.3-0.4 6.9-1-0.4-1.6-1.2-2.5-2.2-0.9 2.7-1.6 5.3-2.7 7.7-5.4 12.4-10.9 24.7-16.4 37.1z"/>
	<path id="Layer" class="s7" d="m331.6 375.9c-0.1 1.1-0.4 2.8-1.2 3.2-5.9 2.5-11.9 4.7-17.8 7.2-1 0.4-1.4 1.9-2.3 3.2-12-0.9-19.9 9.3-30.8 12.6q-0.6 1-1.2 2.1 3.3 1.2 6.6 2.4-0.7 0.5-1.4 1.1c-3-0.3-6.5-1.6-8.9-0.6-2.5 1-4.1 4.4-6.4 7 0.5 0.8 1.2 2 2.4 4.1-3-0.5-5.4-0.9-8.6-1.5 0 2.5 0 4.9 0 7.7-1.1 0.5-2.1 0.5-3.4 0.3-0.4-0.9-0.6-2-0.8-2-2.1-0.2-4.1-0.1-6.9-0.1 0.8-2.5 1.1-4.4 2-6.1 0.7-1.7 2-3.1 3-4.6 24.2-13.9 48.4-27.6 75.7-36z"/>
	<path id="Layer" class="s8" d="m80.4 426.9c-0.4-0.5-0.4-0.9-0.4-1.6 5.5 0 10.9 0.7 16.4 0.6 8.1-0.1 16.5 0.6 24.3-1.2 13-3 26.6-0.8 39.3-5.6 9.1-3.5 18.3-6.7 27.4-10 5.1-1.8 10.1-3.6 15.4-5.2-5 5.9-12 8.7-19.1 11.1-6.9 2.2-13.7 4.5-20.7 6.4-5.6 1.5-11.3 2.6-17 3.6-9.1 1.5-18.2 3.7-27.3 3.7-12.6 0.1-25.5 2.3-38.3-1.8z"/>
	<path id="Layer" class="s6" d="m763.5 311.1c-3 4.9-8.5 2.9-13.1 3.8-5.1 1-10.4 1.3-16 2-5.1 0.4-9.9 0.7-15.4 1-3.2 0.4-5.6 0.8-8 1.1-15 1.2-30 2.7-45 3.6-4.2 0.3-9.1 2.6-12.9-2.1 14.2-1.4 28.4-2.4 42.6-3.5q12.3-0.9 24.5-2c14.3-1.3 28.6-2.7 43.3-3.9z"/>
	<path id="Layer" class="s9" d="m912 211.3c5.5-12.6 11-24.9 16.4-37.3 1.1-2.4 1.8-5 2.7-7.7 0.9 1 1.5 1.8 2.5 2.6-1 3.6-2.5 7.1-3.6 10.7-1.5 5.4-2.1 11.1-4.2 16.3-2.9 7.3-6.8 14.2-10.2 21.3-0.8 1.7-1.3 3.6-2.6 5.8-3.6 1.6-6.5 2.8-9.4 4 1.4-2.7 2.9-5.4 4.6-8.6 0.4-0.8 0.6-1.1 0.7-1.4 0 0 0.1 0 0.3-0.3 0.4-0.7 0.6-1.2 0.8-1.7 0 0 0 0 0.2-0.2 0.4-0.7 0.6-1.2 0.8-1.8 0 0 0 0 0.2-0.1 0.4-0.3 0.5-0.6 0.5-0.8 0.1-0.2 0.1-0.4 0.3-0.8z"/>
	<path id="Layer" class="s10" d="m260.5 339.8c-3.5-3.2-1.9-7-1-10.5 3.2-12.8 2.6-25.8 1-38.5-1.2-9.6-4.7-19.2-12-26.6-1.9-2-3.8-4.1-0.6-7 4.7 5.3 9.1 10.9 11.1 18.7 0.7 1.5 1.4 2.2 2.1 3 1.3 5.8 3.4 11.5 3.7 17.3 0.9 14.6 0.3 29.2-4.3 43.6z"/>
	<path id="Layer" class="s11" d="m860 182c0 0 0-0.5 0.2-1 0.4-1.3 0.6-2.2 0.8-3 3.8-12 7.4-23.9 11.3-35.8 0.7-2.4 2.1-4.5 3.5-6.7 0.8 0.3 1.6 0.9 1.8 0.7 1.5-0.9 2.9-2.1 4.3-3.2-4 11.2-7.8 22.4-12 33.4-3.2 8.2-6.7 16.3-10.7 24.2-0.1-2.9 0.3-5.8 0.8-8.6z"/>
	<path id="Layer" class="s9" d="m860.7 273.8c13.9-10.8 26.2-23.3 36.9-37.4 0.3 2.8-4.1 4.9-0.5 7.8-9.6 11-17.8 23.5-31 31.8-2.3-0.7-3.9-1.4-5.4-2.2z"/>
	<path id="Layer" class="s10" d="m44 184.3c0.9-1 1.8-1.7 3.6-2.9-2.1-0.7-3.2-1.1-3.9-1.3 0.9-2.8 2-5.3 2.5-7.9 1.1-5.6 1.8-11.2 2.8-16.9 0.3-1.3 0.9-2.6 1.7-3.7 0.4 8.3 0.4 16.3 0 24.4-5.7 3.6 0.4 4.9 1.4 7.5 0.3-0.9 0.6-1.7 1.2-2.3 1.6 2.7 2.8 5.1 4.3 7.5 1.1 1.8 2.2 1.9 2.4-0.6 2.6 3.6 5.2 7.3 7.8 11-8.4 3.3-12.2-2.2-16.7-7-2.2-2.8-4.2-4.9-6.2-7.1-0.3-0.1-0.6-0.3-0.9-0.7z"/>
	<path id="Layer" class="s8" d="m205.3 403.8c-0.3-1.6-0.3-3.2-0.3-4.9 6.3-0.1 10.7-4.6 14.8-8.5 8.7-8.1 17-16.8 24.8-25.8 3.4-3.9 5.3-9.1 7.9-13.7 0.8-1.4 1.9-2.5 3.3-3.9 0.6 0.8 1.3 1.9 1 2.5-6.7 13.4-14.5 26.3-26 36-6.9 5.8-13 13-22.2 15.7-1.1 0.4-1.9 1.7-3.3 2.6z"/>
	<path id="Layer" class="s7" d="m540.1 286.5c0.4-2.3 0.9-4.1 1.4-6.2 3.6 2.9-1.5 9.6 5.4 10.9-1.2 3.5-4.6 7.7 0.5 8.2 1.9 4.1 2.7 7.6 4.8 10 6.2 7.4 14.5 8.8 23.5 7.1 3.8-0.7 7.4-2 11.3-3.1-0.5-1.2-1-2.2-1.3-2.9 3.7-0.5 7.1-1 10.9-1.5 0.4 0 0.4 0 0.4 0-0.2 0.5-0.5 1.1-0.9 1.9-11 8.3-23.3 10-36.2 7-9.8-2.2-13.9-10.2-16.8-18.8-1.3-4-1.9-8.2-3-12.6z"/>
	<path id="Layer" class="s12" d="m881.9 132.6c-1.4 1.5-2.8 2.7-4.3 3.6-0.2 0.2-1-0.4-1.6-0.9 2.9-8.7 5.9-17.1 9.2-26.1 0.8-2.5 1.3-4.3 1.8-6.2 0 0 0 0 0.2-0.3 0.8-2.1 1.3-3.9 1.8-5.8 0 0 0.1-0.3 0.3-0.7 0.9-1.7 1.4-2.9 2.1-3.9 0.8 1.7 0.6 4.3 3.4 2.7-1.5 5.4-2.8 10.9-4.4 16.2-1.3 4.4-2.8 8.7-4.4 12.9-1.1 2.8-2.7 5.4-4.1 8.5z"/>
	<path id="Layer" class="s5" d="m859.7 182.2c-0.2 2.6-0.6 5.5-0.8 8.6-1.5 6.3-2.9 12.4-4.9 18.3-3.6 10.9-7.5 21.7-11.3 32.5-0.2 0.6-1.2 1-2.3 1.5 0.6-4.6 1.2-9.3 2.6-13.8 4.1-13.5 8.5-27 13-40.4 0.7-2.3 2.3-4.3 3.7-6.7z"/>
	<path id="Layer" class="s2" d="m274 162c1.2-4.9 2.3-9.9 3.6-14.8 2.5-8.8 4.2-17.7 3.2-26.8-0.2-1.7-2.4-3.2-3-3.9-0.6-6.1-1.2-11.4-1.6-16.9 1.3 2 2.2 4.3 3.4 6.4 0.9 1.4 2.1 2.7 3.2 4 0.7 3.2 2 6.3 2 9.5 0 4.6-0.9 9.2-1.6 13.9-0.2 1.4-1.2 2.8-1.1 4.1 0.1 5.1-0.3 9.9-2.6 14.7-1.9 3.9-2.6 8.4-4.1 12.4-0.7-1-1.1-1.8-1.4-2.6z"/>
	<path id="Layer" class="s8" d="m904 53c0.3-3.2 0.5-6.5 0.8-10.5-1.8 0.1-4.2 0.4-6.7 0.5-7.1 0-14.2 0.1-21.4-0.1-4-0.1-7.2 0.8-9 4.7-1.1 2.3-2.1 2.2-3.3-0.3 0.1-5.5 3.7-7 8-7.2 11.5-0.5 23-0.7 34.5-1.2 2.9-0.1 4.8 0.7 5.5 3.7-4 0.1-5.7 1.7-5.6 5.7-1 1.8-1.9 3.2-2.8 4.7z"/>
	<path id="Layer" class="s2" d="m223 215c4.1-3.4 7.9-7.4 12.4-10.2 9.4-5.8 17.1-13.5 24.2-21.9 1.1-1.4 0.9-4 2-5.4 1.5-1.8 3.8-3 6-4.1 0 1.8-0.3 3.2-0.5 4.7 0 0-0.1-0.1-0.2-0.1-0.1 0.4-0.1 0.7 0 1-4 4.5-7.3 9.8-12 13.3-7 5.3-11.1 13.8-20.1 16.9-2.9 1-5.3 3.8-8.3 5.8-1.2 0-1.9 0-3.1 0-0.4 0-0.4 0-0.4 0z"/>
	<path id="Layer" class="s7" d="m797.2 269.4c0.7-1 1.4-1.6 2.7-2.6 0.9 5 2.3 9.4 7.6 10.3-1.1 5.6 0.2 7.5 5.1 9 7.6 2.4 15.1 0.7 22.8 0.1-0.7 1-1.5 1.8-2.4 2.7-2.8 0.7-5.5 1.8-8.3 2-15.4 1.4-25.1-6.3-27.5-21.5z"/>
	<path id="Layer" class="s7" d="m289 287.4c1-0.9 1.8-1.4 3.1-2.3-0.7 3.3-1.2 6.1-2 8.9-2.8 10.4-6.2 20.6-8.4 31.1-0.9 4.4 0.7 9.4 1.2 14.5 0.1 0.4 0.1 0.4 0.1 0.4-0.6 0.2-1.1 0.4-1.9 0.9-5.1-8.4-3.2-17.1-0.7-25.7 2.7-9.2 5.6-18.3 8.6-27.8z"/>
	<path id="Layer" class="s11" d="m904 53c0.9-1.5 1.8-2.9 3.1-4.6 1 0 1.5 0.4 2 0.7q-2 6.2-3.9 12.4c-3.4 10.9-6.8 21.8-10.3 33.1-2.9 2-2.7-0.6-3.6-2.6-0.2-0.7-0.3-0.9-0.3-1.1 1.9-5.4 3.8-10.8 6.1-16.8 0.5-1 0.7-1.6 0.8-2.1 0 0 0.1-0.5 0.3-1 0.4-1.3 0.6-2.1 0.8-3 0 0 0 0 0.2-0.2 0.4-0.8 0.6-1.3 0.7-1.8 0-0.5 0.1-0.9 0.3-1.8 0.4-1.1 0.6-1.6 0.8-2.2 0 0 0 0 0.2-0.3 0.8-1.7 1.2-3.2 1.7-4.7 0 0 0.1-0.5 0.3-1 0.4-1.3 0.6-2.1 0.8-3q0 0 0 0z"/>
	<path id="Layer" class="s7" d="m396.8 188.5c-1.2 1.1-2.7 2.2-4.2 2.4-2.3 0.4-4.7 0.2-7 0.1-3.7-0.3-5.5 1.3-5.6 5.1-0.2 10.6-6.2 17.9-13.9 24.2-0.8 0.6-2.5 0-4-0.2 2-2.1 4.1-4.1 6.3-6 6.1-5.2 8.4-11.9 8.6-19.6 0.1-6 0.5-6.5 6.6-6.5 4.3 0 8.6 0.1 13.2 0.5z"/>
	<path id="Layer" class="s12" d="m59.7 187.9c0.1 2.7-1 2.6-2.1 0.8-1.5-2.4-2.7-4.8-4.3-7.5-0.3-0.2-0.3-0.2-0.3-0.5-0.3-0.8-0.6-1.3-0.9-2.1-0.1-0.1-0.1-0.5-0.2-0.8-0.3-0.8-0.6-1.3-0.8-1.8 0 0 0-0.1 0-0.1 0-8 0-16-0.1-24.4 0-0.5 0-0.5 0.2-0.7 0.4-0.7 0.6-1.3 0.8-1.8 0-0.4 0-0.8 0.3-1.7 0.3-0.8 0.5-1.1 0.7-1.4 0 0 0.1-0.4 0.3-0.8 0.4-0.9 0.5-1.5 0.7-2.1 0 0 0 0 0.3-0.1 0.5-0.3 0.6-0.6 0.7-0.9 0 0 0.1-0.5 0.2-0.8 0.4-0.6 0.6-0.9 0.8-1.2 0 0 0 0 0.2-0.1 1-0.1 1.8 0 2.7 0-1.8 4.1-3.8 8.1-5.3 12.3-0.5 1.3 0.4 3.1 0.3 4.6-1.1 10.8 1.7 21 5.8 31.1z"/>
	<path id="Layer" class="s7" d="m819.7 151.1c3.6 1.1 7 2.1 12.7 3.9-1.3 0.3-2.5 0.6-4.1 0.9-0.3 0.1-0.3 0.1-0.3 0.1-10-2.7-19.9-4.7-30.2-1.5-6.5 2-13.2 3.9-19.8 5.6-0.8 0.2-1.9-1-3-1.9 7.5-2.6 14.9-5.5 22.5-7 6-1.2 12.4-0.9 19.2-0.9 0.9 0.4 1.1 0.6 1.4 0.7 0.4 0 0.9 0 1.6 0.1z"/>
	<path id="Layer" class="s6" d="m255.6 411.9c-0.7 1.5-2 2.9-2.7 4.6-0.9 1.7-1.2 3.6-2 6.1 2.8 0 4.8-0.1 6.9 0.1 0.2 0 0.4 1.1 0.4 1.9-0.6 0.3-1.1 0.3-2.1 0.2-1-0.2-1.6-0.1-2.1 0 0 0-0.5 0.2-0.9 0.4-0.6 0.3-0.7 0.5-0.8 0.7-3.8 0.4-7.6 0.9-11.5 0.9-0.6 0-2-2.5-1.6-3.4 0.8-2.3 1.9-5.1 3.7-6.2 3.8-2.2 8.2-3.5 12.7-5.3z"/>
	<path id="Layer" class="s7" d="m297.1 350.4c-1.1-1.1-1.9-1.9-2.4-2.3q17.6-3.3 36.1-6.7c-0.5 0.8-1 1.5-1.6 2.5-10.2 5-20.7 7.5-32.1 6.5z"/>
	<path id="Layer" class="s6" d="m440.4 329c-1.7-0.7-3-1.3-4.3-1.9q0-0.5 0.1-1c1.5 0.1 3 0.1 4.5 0.3 9.6 1.9 19 2.8 28.5-0.8 2.4-0.9 5.3-0.4 8.4-0.6 0.4 0 0.4 0 0.4 0.3 0 0.7 0 1.1 0 1.5-11.1 3.9-22.4 4.9-34 4.1-1.2-0.1-2.2-1.1-3.6-1.9z"/>
	<path id="Layer" class="s11" d="m833.4 288.9c0.5-0.9 1.3-1.7 2.4-2.7 6.7-3.4 13-6.6 19.4-9.8 1.6-0.8 3.2-1.6 5.1-2.5 1.9 0.7 3.5 1.4 5.5 2.1-8.4 6.4-18.8 8.8-28.8 12-1.1 0.4-2.2 0.7-3.6 0.9z"/>
	<path id="Layer" class="s12" d="m897.4 244c-3.9-2.7 0.5-4.8 0.5-7.8 0-0.3 0.1-0.3 0.4-0.3 0.8-1.1 1.2-2.1 1.7-3.2 1-1.7 2.1-3.5 3.4-5.4 3.1-1.5 6-2.7 9.3-4.1-1.6 2.6-3.5 5.4-5.5 8.1-3.1 4.2-6.3 8.4-9.8 12.7z"/>
	<path id="Layer" class="s11" d="m282.9 109.6c-1.2-0.9-2.4-2.2-3.3-3.6-1.2-2.1-2.1-4.4-3.4-6.8-0.5-1-0.7-1.8-1.2-3.1-0.5-0.7-0.7-1-0.9-1.1-0.3-0.5-0.6-1-1.1-1.9-0.5-0.8-0.7-1-0.9-1.2 0 0-0.1-0.4-0.1-0.6-1.7-2.7-3.2-5.2-4.9-8 1-0.1 2.6-0.2 3.1 0.5 4.7 6.6 10.4 12.8 11.9 21.9 0.3 0.8 0.5 1.1 0.7 1.3 0.1 0.7 0.1 1.5 0.1 2.6z"/>
	<path id="Layer" class="s11" d="m82 114c0 0 0.5 0 0.7 0 0.5 0 0.6 0 1.1 0-2.4 2.9-5 5.7-7.7 8.4-4.4 4.2-8.9 8.3-13.9 12.3-0.4-1.3-0.3-2.5-0.2-3.7 0 0 0 0 0.3-0.2 1.8-1.7 3.2-3.2 4.7-4.8 0 0 0 0 0.3-0.1 0.7-0.7 1.2-1.3 1.7-1.9 0.3-0.1 0.6-0.3 1.2-0.8 1.2-0.9 2-1.6 2.8-2.2 0 0 0 0 0.2-0.2 0.8-0.7 1.3-1.2 1.8-1.8 0 0 0 0 0.2-0.1 0.5-0.3 0.6-0.6 0.8-0.8 0 0 0-0.1 0.4-0.1 2.1-1.4 3.9-2.7 5.6-4z"/>
	<path id="Layer" class="s7" d="m77.5 91c1.2 0.2 2.1 0.5 2.9 0.8q0.2 0.7 0.4 1.4c-4.8 2.1-9.6 4.1-14.6 5.9 3.5-2.8 7.2-5.5 11.3-8.1z"/>
	<path id="Layer" class="s6" d="m446.6 346c1.9 0.4 3.4 1 5.3 1.7-5.1 0.9-9.8 1.8-14.5 2.4-1.1 0.1-2.3-1-3.4-1.8 2.3-0.7 4.6-1 7-1.3 1.7-0.3 3.4-0.7 5.6-1z"/>
	<path id="Layer" class="s11" d="m267.4 178c-0.1-1.4 0.2-2.8 0.5-4.6 0.1-0.4 0.1-0.4 0.4-0.6 1.8-3 3.2-5.9 4.7-8.8 0 0 0 0 0.2-0.2 0.4-0.7 0.6-1.3 0.8-1.8q0 0 0 0c0.3 0.8 0.7 1.6 1 2.8-2.4 4.6-4.8 8.8-7.6 13.2z"/>
	<path id="Layer" class="s2" d="m61.6 131.1c0.3 1.1 0.2 2.3 0.3 3.7-0.8 1.6-1.9 3-3 4.8-0.9 0.3-1.7 0.2-2.7 0.3 1.6-2.8 3.3-5.8 5.4-8.8z"/>
	<path id="Layer" class="s12" d="m909.4 48.9c-0.8-0.1-1.3-0.5-2.2-0.8-0.5-3.8 1.2-5.4 5.3-5.1-0.7 1.9-1.7 3.8-3.1 5.9z"/>
	<path id="Layer" class="s3" d="m44.9 185.4q3 2.6 6 6.3-2.9-2.6-6-6.3z"/>
	<path id="Layer" class="s6" d="m478 325q3.9-2 7.8-3.9 0.2 0.5 0.4 1c-1.3 1-2.7 2.1-4.1 3.4-0.6 0.4-1 0.4-1.9 0.3-1.1-0.4-1.6-0.6-2.2-0.8q0 0 0 0z"/>
	<path id="Layer" class="s6" d="m491.4 321c-1.1-0.1-1.8-0.2-2.5-0.4q-0.2-0.7-0.3-1.4c1.9-0.4 3.7-0.8 6-1.2 0.4 0 0.4 0 0.4 0-0.6 0.8-1.2 1.5-1.9 2.6-0.6 0.3-1 0.3-1.7 0.4z"/>
	<path id="Layer" class="s6" d="m429.2 325.9c0.1-5.6 2.3-1.8 3.8-1.7q0.1 0.6 0.2 1.2c-0.9 0.2-1.7 0.4-3 0.6-0.3 0-0.8 0-1-0.1z"/>
	<path id="Layer" class="s0" d="m261.1 278.6q-1-0.7-2.1-2.3 1 0.6 2.1 2.3z"/>
	<path id="Layer" class="s0" d="m478 325.3c0.6-0.1 1.1 0.1 1.8 0.6-0.2 0.5-0.7 0.8-1.5 1-0.3-0.5-0.3-0.9-0.3-1.6z"/>
	<path id="Layer" class="s11" d="m266.9 178.8c-0.1-0.1-0.1-0.4 0-0.7 0.2 0 0.1 0.5 0 0.7z"/>
	<path id="Layer" class="s7" d="m254.3 424.9c0.2-0.2 0.8-0.3 1.5-0.2-0.3 0.2-0.7 0.2-1.5 0.2z"/>
	<path id="Layer" class="s11" d="m267 82.7c-0.1 0-0.3-0.3-0.3-0.7 0.2 0.1 0.2 0.3 0.3 0.7z"/>
	<path id="Layer" class="s2" d="m282.8 106.7c-0.2 0.1-0.4-0.2-0.7-0.6 0.2 0 0.5 0.2 0.7 0.6z"/>
	<path id="Layer" class="s7" d="m252.5 425.9q-0.2-0.3 0.4-0.7 0.3 0.3-0.4 0.7z"/>
	<path id="Layer" class="s0" d="m818 150.7c-0.2 0.2-0.4 0-0.8-0.4 0.1 0 0.4 0.1 0.8 0.4z"/>
	<path id="Layer" class="s6" d="m291.6 212.3c-1.4 0.6-2.5 1-4 1.7 1.2-4.7 8.1-5.9 15.7-3.3-4 0.5-7.6 0.9-11.7 1.6z"/>
	<path id="Layer" class="s10" d="m888.7 97.2c-0.2 1.6-0.7 3.4-1.4 5.5 0.2-1.6 0.7-3.4 1.4-5.5z"/>
	<path id="Layer" class="s6" d="m309 223.2c0 0.4 0 0.7-0.1 0.7-0.2 0.1-0.4 0.2-0.6 0.2q-0.1-2.2-0.2-4.5 0.4 0 0.9 0c0 1.1 0 2.2 0 3.6z"/>
	<path id="Layer" class="s7" d="m828 156q-1.3 0.9-2.6 1.8-0.3-0.6-0.6-1.2c0.9-0.2 1.7-0.4 2.9-0.6 0.3 0 0.3 0 0.3 0z"/>
	<path id="Layer" class="s7" d="m601 306c-1.1 1-2.2 1.9-3.7 3-0.3 0-0.3 0-0.3 0 1.1-1 2.2-1.9 3.6-3 0.4 0 0.4 0 0.4 0z"/>
	<path id="Layer" class="s10" d="m890.7 91.2c0.3-0.1 0.4 0.1 0.5 0.6-0.5 1.5-1 2.7-1.8 4.2q0.3-2.1 1.3-4.8z"/>
	<path id="Layer" class="s10" d="m886.8 103.3q-0.4 2.3-1.6 5.5 0.4-2.4 1.6-5.5z"/>
	<path id="Layer" class="s8" d="m902.6 57.1c-0.2 1.4-0.6 2.9-1.4 4.6 0.2-1.3 0.7-2.9 1.4-4.6z"/>
	<path id="Layer" class="s9" d="m899.7 233c-0.2 0.8-0.6 1.8-1.4 2.9 0.1-0.9 0.6-1.8 1.4-2.9z"/>
	<path id="Layer" class="s8" d="m900.7 62.1c0.1 0.5-0.1 1-0.5 1.8-0.1-0.5 0.1-1.1 0.5-1.8z"/>
	<path id="Layer" class="s6" d="m306.6 213.7c-0.4 0.1-0.8 0-1.1-0.2-0.1 0 0-0.3 0-0.4 0.4 0.1 0.7 0.3 1.1 0.6z"/>
	<path id="Layer" class="s8" d="m903.8 53.3q0 0.9-0.6 2.5 0-0.9 0.6-2.5z"/>
	<path id="Layer" class="s8" d="m898.8 68.3q0 0.8-0.6 2.5 0-0.9 0.6-2.5z"/>
	<path id="Layer" class="s5" d="m860.8 178.2q0 0.9-0.6 2.6 0-0.9 0.6-2.6z"/>
	<path id="Layer" class="s8" d="m897.8 72.2q0 0.5-0.6 1.6 0-0.5 0.6-1.6z"/>
	<path id="Layer" class="s2" d="m909.8 215.2q0 0.5-0.6 1.5 0-0.5 0.6-1.5z"/>
	<path id="Layer" class="s8" d="m899.7 66.2q0.1 0.5-0.5 1.6 0-0.5 0.5-1.6z"/>
	<path id="Layer" class="s2" d="m910.8 213.2q0 0.5-0.6 1.6 0-0.5 0.6-1.6z"/>
	<path id="Layer" class="s7" d="m601 306q0.1-0.5 0.3-0.9c0 0.2 0 0.4-0.1 0.8-0.2 0.1-0.2 0.1-0.2 0.1z"/>
	<path id="Layer" class="s2" d="m911.6 212.2q0.2 0.2-0.4 0.7-0.1-0.2 0.4-0.7z"/>
	<path id="Layer" class="s6" d="m495 318c0 0 0.2-0.3 0.2-0.3 0 0-0.1 0.2-0.1 0.3-0.1 0-0.1 0-0.1 0z"/>
	<path id="Layer" class="s7" d="m605 303l-0.2 0.3c0 0 0-0.2 0.1-0.3 0.1 0 0.1 0 0.1 0z"/>
	<path id="Layer" class="s7" d="m605 303c0 0 0.2-0.3 0.2-0.3 0 0 0 0.2-0.1 0.3-0.1 0-0.1 0-0.1 0z"/>
	<path id="Layer" class="s7" d="m608.5 302.6q-0.2-0.3-0.4-0.5c0.1 0 0.2 0.1 0.4 0.3 0.1 0.1 0 0.1 0 0.2z"/>
	<path id="Layer" class="s7" d="m610 299l-0.2 0.3c0 0 0-0.2 0.1-0.3 0.1 0 0.1 0 0.1 0z"/>
	<path id="Layer" class="s7" d="m610 299c0 0 0.2-0.3 0.2-0.3 0 0 0 0.2-0.1 0.3-0.1 0-0.1 0-0.1 0z"/>
	<path id="Layer" class="s7" d="m292.5 282.5c0 0 0 0 0 0z"/>
	<path id="Layer" class="s7" d="m283 340c0.3 0.1 0.5 0.4 0.9 0.8 0.1 0.2 0.1 0.2 0.1 0.2-0.3-0.1-0.5-0.4-0.9-0.8-0.1-0.2-0.1-0.2-0.1-0.2z"/>
	<path id="Layer" class="s7" d="m284 341c0 0 0.3 0.2 0.3 0.2 0 0-0.2 0-0.3-0.1 0-0.1 0-0.1 0-0.1z"/>
	<path id="Layer" class="s2" d="m908.7 217.2q0.1 0.2-0.4 0.9-0.1-0.2 0.4-0.9z"/>
	<path id="Layer" class="s6" d="m307.5 216.5c0 0 0 0 0 0z"/>
	<path id="Layer" class="s10" d="m144.1 254.5c-4.2 0.4-8.3 0.3-12.4 0.5-1.7 0.2-3.3 1.1-5.4 2-0.8 0.6-1.1 0.9-1.3 1.1 0 0 0-0.1-0.2 0-0.4 1.1-0.6 2.1-0.8 3.1-2 7.1-4 14.2-6.1 21.3-1.5 5.2-3.1 10.4-5 15.5-1.6 4.3-3.9 8.4-5.6 12.6-0.7 1.8-0.8 3.8-1.6 6.1-1.2 1.1-1.9 1.7-2.7 2.3q0 0 0 0c2-7.3 3.8-14.7 6-21.9q5.7-18.7 11.9-37.3c2.3-6.9 4.8-8.5 11.9-8.8 3-0.1 6-0.6 8.9-0.6 1.5-0.1 3.1 0.4 5.4 0.8-1.4 1.5-2.2 2.2-3 3.3z"/>
	<path id="Layer" class="s8" d="m50.8 395.1c4.3 0.9 8.4 1.9 12.9 3.3 2.9 1.1 5.2 2.4 7.5 2.5 6.9 0.2 13.9 0.1 20.8 0q3.2 0 6.4 0c-10.3 2.7-20.7 2.7-31 1.3-4.9-0.6-9.7-2.1-15-3.2-0.9-1.3-5.1-1.1-1.6-3.9z"/>
	<path id="Layer" class="s1" d="m92.2 400.7c-7.1 0.3-14.1 0.4-21 0.2-2.3-0.1-4.6-1.4-7-2.4 9.5 0 19.2 0.2 29.4 0.6-0.1 0.5-0.7 1-1.4 1.6z"/>
	<path id="Layer" class="s10" d="m101.1 335.1c-1.2 0.9-2.3 1.7-3.8 2.8 0.9-4.1 2-8.2 3.5-12.6 0.2-0.3 0.2-0.3 0.2 0.1 0 3.5 0.1 6.6 0.1 9.7 0 0 0 0 0 0z"/>
	<path id="Layer" class="s2" d="m272.7 164.1c-1.2 2.8-2.6 5.7-4.4 8.7 1.2-2.7 2.6-5.7 4.4-8.7z"/>
	<path id="Layer" class="s10" d="m92.7 353.1c-0.4 2.4-1.1 4.9-1.8 7.5-0.1 0-0.3 0.1-0.4 0.1-0.2 0-0.3-0.2-0.5-0.5 0-0.7 0-1.1 0.2-2.1 0.4-1.8 0.6-2.9 0.8-4.1 0.5-0.2 1-0.5 1.7-0.9z"/>
	<path id="Layer" class="s5" d="m90.7 354c0.1 1.2-0.1 2.3-0.5 3.7-2.9-1.2-2.8-2.5 0.5-3.7z"/>
	<path id="Layer" class="s10" d="m96.7 338.2c0.1 1.6-0.1 3.4-0.5 5.5-0.1-1.5 0.1-3.4 0.5-5.5z"/>
	<path id="Layer" class="s10" d="m101 325c0.5-1.8 1-3.7 1.8-5.7 0.2-0.3 0.2-0.3 0.2 0.1-0.7 2.1-1.3 3.9-2 5.6q0 0 0 0z"/>
	<path id="Layer" class="s5" d="m82.3 367.5c0.5 0 1 0.3 1.5 0.5q-0.4 0.6-0.7 1.1c-0.3-0.5-0.6-0.9-0.8-1.6z"/>
	<path id="Layer" class="s2" d="m233.3 162.8c-0.1 0.2-0.2 0.4-0.4 0.6q-0.1-0.2-0.3-0.3c0.2-0.2 0.4-0.3 0.7-0.3z"/>
	<path id="Layer" class="s10" d="m94.8 346.2q0 0.9-0.6 2.5 0-0.8 0.6-2.5z"/>
	<path id="Layer" class="s10" d="m93.8 349.2q0 0.9-0.6 2.6 0-0.9 0.6-2.6z"/>
	<path id="Layer" class="s2" d="m223 215q-0.4 0.3-0.8 0.6c0.2-0.2 0.3-0.4 0.6-0.6 0.2 0 0.2 0 0.2 0z"/>
	<path id="Layer" class="s2" d="m273.8 162.2q0 0.5-0.6 1.6 0-0.5 0.6-1.6z"/>
	<path id="Layer" class="s2" d="m274.2 95.2q0.2-0.1 0.6 0.6-0.2 0.1-0.6-0.6z"/>
	<path id="Layer" class="s2" d="m272.2 92.1q0.2 0 0.6 0.7-0.2 0.1-0.6-0.7z"/>
	<path id="Layer" class="s10" d="m243.5 256.5c0 0 0 0 0 0z"/>
	<path id="Layer" class="s4" d="m733 323.6c-0.5 0.4-1 0.5-1.5 0.4-1.4-0.5-2.7-1.1-4.1-1.6 0.8-0.8 2-2.2 2.2-2.1 1.2 0.8 2.3 1.9 3.4 3.3z"/>
	<path id="Layer" class="s4" d="m711.3 319.2c2.1-0.5 4.5-0.9 7.3-1.2-1.2 5-4.5 1.4-7.3 1.2z"/>
	<path id="Layer" class="s7" d="m268.7 421c0.5 0.3 0.7 0.5 1.1 0.9-1.1 0.4-2.3 0.8-3.6 1.1q-0.1-0.6-0.3-1.2c0.8-0.2 1.6-0.5 2.8-0.8z"/>
	<path id="Layer" class="s4" d="m716 330q-1.2-0.4-2.3-0.7 0.1-0.4 0.3-0.9c0.6 0.4 1.2 0.7 1.9 1.3 0.1 0.3 0.1 0.3 0.1 0.3z"/>
	<path id="Layer" class="s7" d="m336.1 376.6c0 0-0.2-0.2-0.2-0.2 0 0 0.3 0.1 0.2 0.2z"/>
	<path id="Layer" class="s7" d="m339 375.6c-0.1 0 0-0.2 0-0.2 0 0 0.1 0.2 0 0.2z"/>
	<path id="Layer" class="s4" d="m85.1 95.5c-0.1-1.8 0.1-3.3 0.4-6.1 2.4 2.2 3.9 3.6 5.3 4.9q-0.2 0.7-0.5 1.4c-1.6 0-3.3 0-5.2-0.2z"/>
	<path id="Layer" class="s2" d="m121.6 80.2c1.5 0.8 2.7 1.6 3.8 2.4q-0.2 0.6-0.4 1.1-4.7-1.2-9.3-2.4 0-0.9 0.1-1.7c1.8 0.2 3.6 0.3 5.8 0.6z"/>
	<path id="Layer" class="s2" d="m81.7 114q-2.1 1.9-5.3 3.9 2.1-1.9 5.3-3.9z"/>
	<path id="Layer" class="s2" d="m66.6 126c-1.1 1.6-2.5 3.1-4.3 4.8 1.2-1.5 2.6-3.1 4.3-4.8z"/>
	<path id="Layer" class="s2" d="m72.6 121.1q-0.6 0.8-2.2 1.9 0.6-0.9 2.2-1.9z"/>
	<path id="Layer" class="s2" d="m111 96q-0.6-0.5-1.3-1 0.2-0.1 0.3-0.3c0.3 0.3 0.6 0.6 0.9 1.1 0.1 0.2 0.1 0.2 0.1 0.2z"/>
	<path id="Layer" class="s2" d="m68.7 124.1c-0.2 0.5-0.7 1.1-1.4 1.8 0.2-0.5 0.7-1.1 1.4-1.8z"/>
	<path id="Layer" class="s2" d="m74.7 119.1c-0.2 0.5-0.7 1-1.5 1.7 0.3-0.4 0.7-1 1.5-1.7z"/>
	<path id="Layer" class="s10" d="m53.8 143.3q0.1 0.5-0.5 1.7-0.1-0.6 0.5-1.7z"/>
	<path id="Layer" class="s10" d="m51.8 149.2q0 0.5-0.6 1.6 0-0.5 0.6-1.6z"/>
	<path id="Layer" class="s2" d="m55.8 140.2q0 0.1-0.6 0.8 0-0.2 0.6-0.8z"/>
	<path id="Layer" class="s10" d="m54.9 142.1q0.1 0.3-0.6 0.8-0.1-0.3 0.6-0.8z"/>
	<path id="Layer" class="s2" d="m75.8 118.2q0.1 0.2-0.6 0.7 0-0.3 0.6-0.7z"/>
	<path id="Layer" class="s10" d="m52.8 146.1q0 0.2-0.5 0.9-0.1-0.2 0.5-0.9z"/>
	<path id="Layer" class="s1" d="m748.4 320c2.1-0.9 4.6-1.8 7-2.6q0.3 1.1 0.6 2.2c-2.4 0.1-4.8 0.3-7.6 0.4z"/>
	<path id="Layer" class="s8" d="m44 392.1c-0.6-0.5-1.3-1-1.9-1.8-0.1-0.3-0.1-0.4-0.1-0.4 0.6 0.6 1.2 1.1 1.9 1.8 0.1 0.3 0.1 0.4 0.1 0.4z"/>
	<path id="Layer" class="s8" d="m45 393c0.6 0.2 1.1 0.4 1.8 0.8 0.2 0.2 0.2 0.2 0.2 0.2-0.6-0.2-1.1-0.4-1.8-0.8-0.2-0.2-0.2-0.2-0.2-0.2z"/>
	<path id="Layer" class="s8" d="m39 386l-0.3-0.2c0 0 0.2 0 0.3 0.1 0 0.1 0 0.1 0 0.1z"/>
	<path id="Layer" class="s8" d="m39 386c0 0 0.3 0.2 0.3 0.2 0 0-0.2 0-0.3-0.1 0-0.1 0-0.1 0-0.1z"/>
	<path id="Layer" class="s8" d="m41 389.1l-0.3-0.3c0 0 0.3 0 0.3 0.1 0 0.1 0 0.2 0 0.2z"/>
	<path id="Layer" class="s8" d="m41 389c0.3 0.1 0.5 0.3 0.9 0.8 0.1 0.1 0.1 0.2 0.1 0.2-0.3-0.1-0.5-0.3-0.9-0.8-0.1-0.1-0.1-0.2-0.1-0.2z"/>
	<path id="Layer" class="s8" d="m45 393c-0.3-0.1-0.5-0.3-0.9-0.8-0.1-0.1-0.1-0.2-0.1-0.2 0.3 0.1 0.5 0.4 0.9 0.8 0.1 0.2 0.1 0.2 0.1 0.2z"/>
	<path id="Layer" class="s8" d="m47 394c0 0 0.3 0.2 0.3 0.2 0 0-0.2 0-0.3-0.1 0-0.1 0-0.1 0-0.1z"/>
	<path id="Layer" class="s3" d="m52 178.1c0 0 0 0.4 0.1 0.9 0.3 1 0.6 1.5 0.9 2q0 0 0 0-0.4 1.2-0.9 2.5c-1-2.6-7.1-3.9-1.4-7.5 0.4-0.1 0.4 0 0.4 0.3 0.3 0.8 0.6 1.3 0.9 1.8z"/>
	<path id="Layer" class="s10" d="m51.9 177.8q-0.3-0.3-0.8-1.5 0.4 0.3 0.8 1.5z"/>
	<path id="Layer" class="s10" d="m53 180.7q-0.4-0.3-0.9-1.6 0.4 0.4 0.9 1.6z"/>
	<path id="Layer" class="s5" d="m101 325.4c0.7-2.1 1.3-3.9 2-6 0.8-1 1.5-1.6 2.5-2.3-1 5.8-2.4 11.7-4 17.8-0.4-2.9-0.5-6-0.5-9.5z"/>
	<path id="Layer" class="s0" d="m124.4 261c-0.2-0.8 0-1.8 0.4-2.9 0.2 0.9 0 1.8-0.4 2.9z"/>
	<path id="Layer" class="s0" d="m125.3 258c-0.1-0.1 0.2-0.4 0.6-0.8 0 0.1-0.2 0.4-0.6 0.8z"/>
</svg>